<svg xmlns="http://www.w3.org/2000/svg" viewBox="0 0 320 320" role="img" aria-label="beauty-floral">
  <defs>
    <linearGradient id="g" x1="0" y1="0" x2="1" y2="1"><stop offset="0" stop-color="#5b213f"/><stop offset="1" stop-color="#f472b6"/></linearGradient>
    <linearGradient id="g2" x1="0" y1="0" x2="1" y2="1"><stop offset="0" stop-color="#f472b6"/><stop offset="1" stop-color="#5b213f"/></linearGradient>
    <filter id="shadow" x="-20%" y="-20%" width="140%" height="140%"><feDropShadow dx="0" dy="18" stdDeviation="18" flood-color="#000" flood-opacity=".24"/></filter>
  </defs>
  <rect width="320" height="320" rx="48" fill="url(#g)"/>
  <circle cx="58" cy="62" r="92" fill="#fff" opacity=".14"/>
  <circle cx="278" cy="260" r="118" fill="#fff" opacity=".12"/>
  <g filter="url(#shadow)"><circle cx="160" cy="150" r="22" fill="url(#g2)"/><g fill="white" opacity=".92"><ellipse cx="160" cy="95" rx="24" ry="45"/><ellipse cx="160" cy="205" rx="24" ry="45"/><ellipse cx="105" cy="150" rx="45" ry="24"/><ellipse cx="215" cy="150" rx="45" ry="24"/><ellipse cx="121" cy="111" rx="22" ry="40" transform="rotate(-45 121 111)"/><ellipse cx="199" cy="189" rx="22" ry="40" transform="rotate(-45 199 189)"/><ellipse cx="199" cy="111" rx="22" ry="40" transform="rotate(45 199 111)"/><ellipse cx="121" cy="189" rx="22" ry="40" transform="rotate(45 121 189)"/></g></g>
  <path d="M36 264c80-34 166-34 248 0" stroke="#fff" stroke-width="8" stroke-linecap="round" opacity=".18"/>
</svg>