<svg xmlns="http://www.w3.org/2000/svg" viewBox="0 0 320 320" role="img" aria-label="cleaning-realistic">
  <defs>
    <linearGradient id="g" x1="0" y1="0" x2="1" y2="1"><stop offset="0" stop-color="#0f766e"/><stop offset="1" stop-color="#38bdf8"/></linearGradient>
    <linearGradient id="g2" x1="0" y1="0" x2="1" y2="1"><stop offset="0" stop-color="#38bdf8"/><stop offset="1" stop-color="#0f766e"/></linearGradient>
    <filter id="shadow" x="-20%" y="-20%" width="140%" height="140%"><feDropShadow dx="0" dy="18" stdDeviation="18" flood-color="#000" flood-opacity=".24"/></filter>
  </defs>
  <rect width="320" height="320" rx="48" fill="url(#g)"/>
  <circle cx="58" cy="62" r="92" fill="#fff" opacity=".14"/>
  <circle cx="278" cy="260" r="118" fill="#fff" opacity=".12"/>
  <g filter="url(#shadow)"><rect x="85" y="105" width="150" height="105" rx="20" fill="white" opacity=".9"/><path d="M105 92l22-38 22 38 38 22-38 22-22 38-22-38-38-22z" fill="url(#g2)"/><path d="M210 170l13-22 13 22 22 13-22 13-13 22-13-22-22-13z" fill="url(#g2)"/></g>
  <path d="M36 264c80-34 166-34 248 0" stroke="#fff" stroke-width="8" stroke-linecap="round" opacity=".18"/>
</svg>