<svg xmlns="http://www.w3.org/2000/svg" viewBox="0 0 320 320" role="img" aria-label="coaching-luxury">
  <defs>
    <linearGradient id="g" x1="0" y1="0" x2="1" y2="1"><stop offset="0" stop-color="#1c1917"/><stop offset="1" stop-color="#d4af37"/></linearGradient>
    <linearGradient id="g2" x1="0" y1="0" x2="1" y2="1"><stop offset="0" stop-color="#d4af37"/><stop offset="1" stop-color="#1c1917"/></linearGradient>
    <filter id="shadow" x="-20%" y="-20%" width="140%" height="140%"><feDropShadow dx="0" dy="18" stdDeviation="18" flood-color="#000" flood-opacity=".24"/></filter>
  </defs>
  <rect width="320" height="320" rx="48" fill="url(#g)"/>
  <circle cx="58" cy="62" r="92" fill="#fff" opacity=".14"/>
  <circle cx="278" cy="260" r="118" fill="#fff" opacity=".12"/>
  <g filter="url(#shadow)"><path d="M115 70h90v42c0 45-19 75-45 75s-45-30-45-75z" fill="white" opacity=".95"/><path d="M115 90H80c0 38 18 64 46 67M205 90h35c0 38-18 64-46 67" stroke="white" stroke-width="14" fill="none" stroke-linecap="round"/><rect x="140" y="187" width="40" height="38" fill="url(#g2)"/><rect x="112" y="225" width="96" height="18" rx="9" fill="white" opacity=".95"/></g>
  <path d="M36 264c80-34 166-34 248 0" stroke="#fff" stroke-width="8" stroke-linecap="round" opacity=".18"/>
</svg>