<svg xmlns="http://www.w3.org/2000/svg" viewBox="0 0 320 320" role="img" aria-label="kids-cartoon">
  <defs>
    <linearGradient id="g" x1="0" y1="0" x2="1" y2="1"><stop offset="0" stop-color="#be123c"/><stop offset="1" stop-color="#22c55e"/></linearGradient>
    <linearGradient id="g2" x1="0" y1="0" x2="1" y2="1"><stop offset="0" stop-color="#22c55e"/><stop offset="1" stop-color="#be123c"/></linearGradient>
    <filter id="shadow" x="-20%" y="-20%" width="140%" height="140%"><feDropShadow dx="0" dy="18" stdDeviation="18" flood-color="#000" flood-opacity=".24"/></filter>
  </defs>
  <rect width="320" height="320" rx="48" fill="url(#g)"/>
  <circle cx="58" cy="62" r="92" fill="#fff" opacity=".14"/>
  <circle cx="278" cy="260" r="118" fill="#fff" opacity=".12"/>
  <g filter="url(#shadow)"><ellipse cx="110" cy="105" rx="33" ry="44" fill="white" opacity=".88"/><ellipse cx="170" cy="90" rx="35" ry="48" fill="url(#g2)"/><ellipse cx="220" cy="120" rx="30" ry="42" fill="white" opacity=".75"/><path d="M110 150c10 42 0 65-34 82M170 140c0 48-14 72-42 90M220 160c-8 38-3 58 25 74" stroke="white" stroke-width="5" fill="none"/></g>
  <path d="M36 264c80-34 166-34 248 0" stroke="#fff" stroke-width="8" stroke-linecap="round" opacity=".18"/>
</svg>