<svg xmlns="http://www.w3.org/2000/svg" viewBox="0 0 320 320" role="img" aria-label="portfolio-cartoon">
  <defs>
    <linearGradient id="g" x1="0" y1="0" x2="1" y2="1"><stop offset="0" stop-color="#581c87"/><stop offset="1" stop-color="#facc15"/></linearGradient>
    <linearGradient id="g2" x1="0" y1="0" x2="1" y2="1"><stop offset="0" stop-color="#facc15"/><stop offset="1" stop-color="#581c87"/></linearGradient>
    <filter id="shadow" x="-20%" y="-20%" width="140%" height="140%"><feDropShadow dx="0" dy="18" stdDeviation="18" flood-color="#000" flood-opacity=".24"/></filter>
  </defs>
  <rect width="320" height="320" rx="48" fill="url(#g)"/>
  <circle cx="58" cy="62" r="92" fill="#fff" opacity=".14"/>
  <circle cx="278" cy="260" r="118" fill="#fff" opacity=".12"/>
  <g filter="url(#shadow)"><path d="M160 70c55 0 92 37 92 84 0 30-20 46-46 46h-22c-13 0-20 8-20 20 0 17-14 28-34 22-39-12-70-48-70-89 0-47 42-83 100-83z" fill="white" opacity=".95"/><circle cx="125" cy="130" r="12" fill="url(#g2)"/><circle cx="164" cy="112" r="12" fill="#22c55e"/><circle cx="200" cy="140" r="12" fill="#fb7185"/><circle cx="144" cy="170" r="12" fill="#a855f7"/></g>
  <path d="M36 264c80-34 166-34 248 0" stroke="#fff" stroke-width="8" stroke-linecap="round" opacity=".18"/>
</svg>