<svg xmlns="http://www.w3.org/2000/svg" viewBox="0 0 320 320" role="img" aria-label="realestate-buildings">
  <defs>
    <linearGradient id="g" x1="0" y1="0" x2="1" y2="1"><stop offset="0" stop-color="#12312b"/><stop offset="1" stop-color="#d4af37"/></linearGradient>
    <linearGradient id="g2" x1="0" y1="0" x2="1" y2="1"><stop offset="0" stop-color="#d4af37"/><stop offset="1" stop-color="#12312b"/></linearGradient>
    <filter id="shadow" x="-20%" y="-20%" width="140%" height="140%"><feDropShadow dx="0" dy="18" stdDeviation="18" flood-color="#000" flood-opacity=".24"/></filter>
  </defs>
  <rect width="320" height="320" rx="48" fill="url(#g)"/>
  <circle cx="58" cy="62" r="92" fill="#fff" opacity=".14"/>
  <circle cx="278" cy="260" r="118" fill="#fff" opacity=".12"/>
  <g filter="url(#shadow)"><rect x="80" y="80" width="58" height="150" rx="8" fill="white" opacity=".95"/><rect x="152" y="55" width="88" height="175" rx="10" fill="white" opacity=".82"/><g fill="url(#g2)"><rect x="95" y="105" width="14" height="14" rx="3"/><rect x="118" y="105" width="14" height="14" rx="3"/><rect x="95" y="135" width="14" height="14" rx="3"/><rect x="118" y="135" width="14" height="14" rx="3"/><rect x="172" y="88" width="16" height="16" rx="3"/><rect x="202" y="88" width="16" height="16" rx="3"/><rect x="172" y="122" width="16" height="16" rx="3"/><rect x="202" y="122" width="16" height="16" rx="3"/></g></g>
  <path d="M36 264c80-34 166-34 248 0" stroke="#fff" stroke-width="8" stroke-linecap="round" opacity=".18"/>
</svg>