<svg xmlns="http://www.w3.org/2000/svg" viewBox="0 0 320 320" role="img" aria-label="wellness-floral">
  <defs>
    <linearGradient id="g" x1="0" y1="0" x2="1" y2="1"><stop offset="0" stop-color="#31572c"/><stop offset="1" stop-color="#84cc16"/></linearGradient>
    <linearGradient id="g2" x1="0" y1="0" x2="1" y2="1"><stop offset="0" stop-color="#84cc16"/><stop offset="1" stop-color="#31572c"/></linearGradient>
    <filter id="shadow" x="-20%" y="-20%" width="140%" height="140%"><feDropShadow dx="0" dy="18" stdDeviation="18" flood-color="#000" flood-opacity=".24"/></filter>
  </defs>
  <rect width="320" height="320" rx="48" fill="url(#g)"/>
  <circle cx="58" cy="62" r="92" fill="#fff" opacity=".14"/>
  <circle cx="278" cy="260" r="118" fill="#fff" opacity=".12"/>
  <g filter="url(#shadow)"><path d="M230 75c-88 5-148 55-145 140 78 5 140-42 145-140z" fill="white" opacity=".92"/><path d="M98 205c35-58 80-92 132-130" stroke="url(#g2)" stroke-width="10" fill="none" stroke-linecap="round"/><path d="M128 172c-5-25-16-44-34-58M160 140c-4-21-13-38-29-52" stroke="url(#g2)" stroke-width="7" fill="none" stroke-linecap="round"/></g>
  <path d="M36 264c80-34 166-34 248 0" stroke="#fff" stroke-width="8" stroke-linecap="round" opacity=".18"/>
</svg>